<?xml version="1.0" encoding="UTF-8"?>
<svg id="Layer_2" data-name="Layer 2" xmlns="http://www.w3.org/2000/svg" viewBox="0 0 1235.09 205.2">
  <defs>
    <style>
      .cls-1 {
        fill: #fff;
        stroke-width: 0px;
      }
    </style>
  </defs>
  <g id="Layer_1-2" data-name="Layer 1">
    <g>
      <path class="cls-1" d="m219.45,63.11v-11.81c0-27.75-22.38-50.26-50.08-50.48h0s-.41,0-.41,0h-86.32v51.11L21.17,6.05,13.07,0H0v16.67l21.17,15.8,61.48,45.88,21.17,15.8V21.99h65.14c16.19,0,29.31,13.12,29.31,29.31v11.81c0,16.19-13.12,29.31-29.31,29.31h-45.19v41.9l-19.95-14.89-21.17-15.8-21.58-16.1-3.27-2.44-36.63-27.34L0,41.96v163.25h21.17v-121.03l18.73,13.98,21.17,15.8,21.58,16.1,21.17,15.8,19.95,14.89,21.17,15.8v-62.95h24.02c16.19,0,29.31,13.12,29.31,29.31v11.81c0,16.19-13.12,29.31-29.31,29.31H61.89v-38.73l-21.17-15.8v75.7h128.66c27.7-.22,50.08-22.74,50.08-50.49v-11.81c0-16.23-7.66-30.66-19.55-39.9,11.9-9.24,19.55-23.67,19.55-39.9Z"/>
      <g>
        <g>
          <path class="cls-1" d="m366.2,9.47v117.34h-22.35l-58.67-81.02v81.02h-22.35V9.47h22.35l58.67,81.02V9.47h22.35Z"/>
          <path class="cls-1" d="m410.9,31.82v25.14h41.91v22.35h-41.91v25.15h50.29v22.35h-72.64V9.47h72.64v22.35h-50.29Z"/>
          <path class="cls-1" d="m558.97,9.47v22.35h-30.73v94.99h-22.35V31.82h-30.73V9.47h83.82Z"/>
          <path class="cls-1" d="m667.93,91.54c0,20.26-15.02,35.27-40.16,35.27h-52.04V9.47h41.91c26.89,0,44.7,9.08,44.7,30.73,0,11.7-6.29,20.08-14.14,23.57,14.49,3.67,19.73,15.54,19.73,27.76Zm-69.85-37.37h20.95c13.27,0,20.95-3.49,20.95-11.18,0-9.08-7.68-11.18-20.95-11.18h-20.95v22.35Zm47.5,34.92c0-10.48-9.25-15.37-23.75-15.37h-23.75v30.73h23.75c14.49,0,23.75-4.71,23.75-15.37Z"/>
          <path class="cls-1" d="m800.64,68.14c0,33.88-27.59,61.47-61.47,61.47s-61.47-27.59-61.47-61.47,27.59-61.47,61.47-61.47,61.47,27.59,61.47,61.47Zm-22.35,0c0-21.65-17.46-39.11-39.11-39.11s-39.11,17.46-39.11,39.11,17.46,39.11,39.11,39.11,39.11-17.46,39.11-39.11Z"/>
          <path class="cls-1" d="m908.2,9.47v67.05c0,30.91-17.46,53.08-47.5,53.08s-47.5-22.18-47.5-53.08V9.47h22.35v69.85c0,16.76,11.18,27.94,25.14,27.94s25.14-11.18,25.14-27.94V9.47h22.35Z"/>
          <path class="cls-1" d="m1031.13,9.47v117.34h-22.35l-58.67-81.02v81.02h-22.35V9.47h22.35l58.67,81.02V9.47h22.35Z"/>
          <path class="cls-1" d="m1138.52,95.2l8.56,20.26c-9.95,9.08-24.97,14.14-38.07,14.14-34.4,0-62.51-27.59-62.51-61.47s28.11-61.47,62.51-61.47c13.1,0,28.11,4.89,38.07,13.97l-8.56,20.26c-7.51-7.33-17.81-11.87-29.16-11.87-22.35,0-40.51,17.46-40.51,39.11s18.16,39.11,40.51,39.11c11.52,0,21.83-4.54,29.16-12.05Z"/>
          <path class="cls-1" d="m1184.8,31.82v25.14h41.91v22.35h-41.91v25.15h50.29v22.35h-72.64V9.47h72.64v22.35h-50.29Z"/>
        </g>
        <g>
          <path class="cls-1" d="m287.93,172.93c0,6.82-4.55,12.18-12.23,12.18h-7.68v12.55h-5.2v-36.37h11.26c9.47,0,13.85,4.76,13.85,11.64Zm-5.2.32c0-4.76-3.52-6.76-7.31-6.76h-7.41v13.42h7.74c3.79,0,6.98-1.95,6.98-6.66Z"/>
          <path class="cls-1" d="m336.31,192.47v5.2h-19.91v-36.37h5.2v31.17h14.72Z"/>
          <path class="cls-1" d="m389.4,189.87h-16.34l-3.52,7.79h-5.63l17.32-37.23,17.32,37.23h-5.63l-3.52-7.79Zm-2.38-5.2l-5.79-12.77-5.79,12.77h11.58Z"/>
          <path class="cls-1" d="m450.77,188.95l2.22,4.87c-3.03,2.81-7.41,4.28-11.36,4.28-10.44,0-18.94-8.33-18.94-18.62s8.5-18.62,18.94-18.62c3.95,0,8.33,1.41,11.36,4.22l-2.22,4.87c-2.49-2.54-5.36-3.9-9.47-3.9-7.41,0-13.42,6.01-13.42,13.42s6.01,13.42,13.42,13.42c4.11,0,6.98-1.35,9.47-3.95Z"/>
          <path class="cls-1" d="m487.08,166.49v10.39h12.99v5.2h-12.99v10.39h15.59v5.2h-20.78v-36.37h20.78v5.2h-15.59Z"/>
          <path class="cls-1" d="m539.9,176.13l-3.46,21.54h-5.3l6.17-37.23,14.18,27.49,14.18-27.49,6.17,37.23h-5.3l-3.46-21.54-11.58,22.4-11.58-22.4Z"/>
          <path class="cls-1" d="m606.35,166.49v10.39h12.99v5.2h-12.99v10.39h15.59v5.2h-20.78v-36.37h20.78v5.2h-15.59Z"/>
          <path class="cls-1" d="m657.33,172.77v24.89h-5.2v-37.23l25.11,25.76v-24.89h5.2v37.23l-25.11-25.76Z"/>
          <path class="cls-1" d="m736.01,161.3v5.2h-9.52v31.17h-5.2v-31.17h-9.52v-5.2h24.24Z"/>
          <path class="cls-1" d="m841.15,192.47v5.2h-19.91v-36.37h5.2v31.17h14.72Z"/>
          <path class="cls-1" d="m890.4,192.47v5.2h-19.91v-36.37h5.2v31.17h14.72Z"/>
          <path class="cls-1" d="m945.22,188.95l2.22,4.87c-3.03,2.81-7.41,4.28-11.36,4.28-10.44,0-18.94-8.33-18.94-18.62s8.5-18.62,18.94-18.62c3.95,0,8.33,1.41,11.36,4.22l-2.22,4.87c-2.49-2.54-5.36-3.9-9.47-3.9-7.41,0-13.42,6.01-13.42,13.42s6.01,13.42,13.42,13.42c4.11,0,6.98-1.35,9.47-3.95Z"/>
        </g>
      </g>
    </g>
  </g>
</svg>